Simulation
nRows=32
nColumns=15
endheader
time  TH_x TH_y TH_z SC_y  SC_z  SC_x  AC_y  AC_z  AC_x  GH_y  GH_z  GH_yy  EL_x  PS_y
0.0  0.000000  0.000000  0.000000  -21.29571779905727  0.7646941007878221  8.03561290233522  59.855409501474654  -3.868294203741674  -10.530673176392936  9.435469889647923  18.2764403014337  22.004756450495464  32.06256568451513  120.000000
0.025  0.000000  0.000000  0.000000  -21.511798418400033  0.7275047738628759  7.949690601825771  60.03002175308313  -3.457648721413826  -10.510682925261293  8.642271079793476  18.41394872657543  22.43472243687274  31.837141312677293  120.000000
0.05  0.000000  0.000000  0.000000  -21.734714316877554  0.6825919181174949  7.854831430907145  60.20850720944172  -3.071280795588918  -10.452711936682936  8.014104157093206  18.547550522708317  22.699428692440673  31.638879268640927  120.000000
0.07500000000000001  0.000000  0.000000  0.000000  -21.956527050559156  0.6347429771416151  7.752211719986039  60.38567821685148  -2.7044317606184847  -10.357480171578569  7.5633535642797725  18.679260475215624  22.772365165138996  31.462173444758164  120.000000
0.1  0.000000  0.000000  0.000000  -22.182148784658974  0.5963688296673113  7.641200918898644  60.56375179211136  -2.349476514656537  -10.227427021205333  7.304732279235213  18.815700994335643  22.622120669763643  31.30981384098405  120.000000
0.125  0.000000  0.000000  0.000000  -22.412735425986412  0.5771728800776522  7.524483109444781  60.74985831288327  -1.996358238626553  -10.071009222665761  7.229727563711765  18.968402190308275  22.24253115266211  31.179802302476983  120.000000
0.15000000000000002  0.000000  0.000000  0.000000  -22.651914673735156  0.5840417272682786  7.409736661072766  60.94951157494443  -1.6363598684368097  -9.897339165168201  7.30674503402135  19.151470233109436  21.653067131815334  31.071212697263377  120.000000
0.17500000000000002  0.000000  0.000000  0.000000  -22.904101823961515  0.6201114131574711  7.30823303348546  61.164891108582324  -1.2635853391425524  -9.713048030173585  7.485726668741353  19.37781486410544  20.89380024976072  30.98273205146589  120.000000
0.2  0.000000  0.000000  0.000000  -23.17126334661601  0.6846592145106749  7.231244010753133  61.39770578116509  -0.8747546056531179  -9.523044937337929  7.710010766034105  19.65927200089053  20.014157602954988  30.912768626523913  120.000000
0.225  0.000000  0.000000  0.000000  -23.45439481565256  0.7753877621583022  7.1884552183157  61.650642996419265  -0.468167503687859  -9.329858777585148  7.925882870577185  20.005287083379052  19.06255812207359  30.86076216245896  120.000000
0.25  0.000000  0.000000  0.000000  -23.753142639600995  0.8890900943765676  7.186830796445914  61.92731170040464  -0.0430990508461529  -9.13444589699001  8.088190920873359  20.423104852834015  18.08009156300202  30.826422037823512  120.000000
0.275  0.000000  0.000000  0.000000  -24.067171626344564  1.0218958427386235  7.230860367459243  62.23169463438715  0.40084778718761427  -8.936803916180448  8.162007385070645  20.917554663629044  17.098075140759608  30.809158755099485  120.000000
0.30000000000000004  0.000000  0.000000  0.000000  -24.39609067452037  1.169476556286122  7.322718614357098  62.567267197651766  0.8639182730289521  -8.736437110987081  8.12393393064367  21.491101796538242  16.136359871420037  30.807469213184188  120.000000
0.325  0.000000  0.000000  0.000000  -24.74024602740437  1.3272393027923217  7.462288676309462  62.93653575308267  1.3465593599123893  -8.532763516854232  7.962140765284094  22.144466665980882  15.203395108236881  30.818684023481552  120.000000
0.35000000000000003  0.000000  0.000000  0.000000  -25.099562651359456  1.4906573270321792  7.647182289298624  63.34051147144439  1.8496757894845752  -8.325314215553163  7.675351408686683  22.876698377936496  14.298090943664914  30.83894511136325  120.000000
0.375  0.000000  0.000000  0.000000  -25.47380603911541  1.655368685436058  7.873826061301998  63.778393375083354  2.373779552350268  -8.114545383117918  7.271303132768953  23.686065691192304  13.412394519448968  30.86322751672706  120.000000
0.4  0.000000  0.000000  0.000000  -25.861332964145372  1.8175732272886793  8.138220969227131  64.24705567993199  2.918638571884569  -7.901835712316345  6.764436332019315  24.56990410348635  12.534936871220221  30.885490456189537  120.000000
0.42500000000000004  0.000000  0.000000  0.000000  -26.25931565790681  1.9744383237464864  8.435907578539476  64.74099536071438  3.4831686719002346  -7.68945408457664  6.174307403272219  25.525423892276073  11.653356416067941  30.898813528600243  120.000000
0.45  0.000000  0.000000  0.000000  -26.663240234575014  2.1240690791591557  8.762059735510329  65.252562605847  4.065573285261769  -7.480000272576042  5.523747834982644  26.549520652036897  10.75617939853175  30.895642754029076  120.000000
0.47500000000000003  0.000000  0.000000  0.000000  -27.068035952372746  2.265497416651815  9.111850702467246  65.77217426553116  4.662942341778255  -7.27595264731078  4.837025187382269  27.639228516435107  9.8339503695508  30.868538663450316  120.000000
0.5  0.000000  0.000000  0.000000  -27.4680698522845  2.3985918143881197  9.479962158928556  66.28925281449058  5.271893898348083  -7.079141055939755  4.137390823351656  28.7912213895509  8.88093545224215  30.811251609519122  120.000000
0.525  0.000000  0.000000  0.000000  -27.858230618388916  2.52413514186948  9.860024949031855  66.79302473418454  5.888854504355568  -6.8907244272452886  3.445112434496475  30.001851767603423  7.894939040453648  30.719873289035235  120.000000
0.55  0.000000  0.000000  0.000000  -28.23409128480852  2.6435288518120936  10.245764787288692  67.27362204273035  6.509369915718936  -6.7113172581125555  2.775876727540936  31.26654232818917  6.877860731969761  30.593924778136962  120.000000
0.5750000000000001  0.000000  0.000000  0.000000  -28.593008521981105  2.7584994976741184  10.632338207076014  67.72240930895386  7.127466945332536  -6.5409674096391335  2.1401396269090354  32.57990660147619  5.835543244697623  30.437002248340292  120.000000
0.6000000000000001  0.000000  0.000000  0.000000  -28.93325229829789  2.8708262556918043  11.016153458636092  68.13232731395188  7.736331469487417  -6.379165237390488  1.5435873721518434  33.935443389541696  4.776384187904955  30.255975770651315  120.000000
0.625  0.000000  0.000000  0.000000  -29.254998896130733  2.9825892422157856  11.394953181467034  68.49831752329543  8.328994247259226  -6.225205186966403  0.9881773895041672  35.32583178735328  3.7104459366232216  30.05938597091915  120.000000
0.65  0.000000  0.000000  0.000000  -29.559337708224266  3.096108948701932  11.767460746567165  68.81736189630435  8.898902774309818  -6.078417032061098  0.4731375194723327  36.743074201862235  2.6488267261714578  29.85561136746102  120.000000
0.675  0.000000  0.000000  0.000000  -29.848873441409793  3.213518461732052  12.133811450183085  69.08833685998573  9.440448239120922  -5.938093753523166  -0.003537644173815672  38.178578745281115  1.602543026901153  29.65087852915847  120.000000
0.7000000000000001  0.000000  0.000000  0.000000  -30.126391023065626  3.336430265454804  12.494875528398895  69.31198742759283  9.949145672269237  -5.8035750966877275  -0.4436887838209774  39.62369180959175  0.5812369917135503  29.448152137966854  120.000000
0.7250000000000001  0.000000  0.000000  0.000000  -30.39539054605638  3.466002326778673  12.852507929335273  69.49068685981197  10.421765322942067  -5.674225233022676  -0.8483827819023454  41.06975444005153  -0.4072494989227703  29.247074713698304  120.000000
0.75  0.000000  0.000000  0.000000  -30.658789189967322  3.602731134011007  13.208615862003386  69.62807094855891  10.856124543383338  -5.549536897570416  -1.218074944355054  42.508699361997834  -1.3571935416865155  29.044637563553543  120.000000
0.775  0.000000  0.000000  0.000000  -30.91955859501677  3.746538946226959  13.565276383779082  69.72862206114436  11.25101157968931  -5.429112878665903  -1.553129137222734  43.93298850322939  -2.2649400644141484  28.836223135520868  120.000000
